<svg width="360" height="398" viewBox="0 0 360 398" fill="none" xmlns="http://www.w3.org/2000/svg">
<path d="M145.063 192.739C116.154 173.899 75.476 168.311 57.4196 145.163C39.4215 122.101 44.0256 81.6338 68.926 58.0571C93.7583 34.4719 138.887 27.7774 164.543 16.9012C190.258 6.11105 196.588 -9.00736 207.393 -20.648C218.276 -32.3576 233.558 -40.5205 248.35 -39.8422C263.133 -39.0864 277.417 -29.4119 306.096 -25.8058C334.843 -22.1911 377.985 -24.6447 402.602 -6.34403C427.141 12.0256 433.097 51.0634 421.469 83.0055C409.918 114.879 380.726 139.57 362.711 179.927C344.619 220.353 337.714 276.366 313.797 294.867C289.872 313.445 249.012 294.442 220.037 268.975C191.062 243.509 173.981 211.502 145.063 192.739Z" fill="#E1A771" fill-opacity="0.4"/>
</svg>
