<svg width="411" height="379" viewBox="0 0 411 379" fill="none" xmlns="http://www.w3.org/2000/svg">
<path d="M119.063 255.739C90.1541 236.899 49.476 231.311 31.4196 208.163C13.4215 185.101 18.0256 144.634 42.926 121.057C67.7583 97.4719 112.887 90.7774 138.543 79.9012C164.258 69.1111 170.588 53.9926 181.393 42.352C192.276 30.6424 207.558 22.4795 222.35 23.1578C237.133 23.9136 251.417 33.5881 280.096 37.1942C308.843 40.8089 351.985 38.3554 376.602 56.656C401.141 75.0256 407.097 114.063 395.469 146.006C383.918 177.879 354.726 202.57 336.711 242.927C318.619 283.353 311.714 339.366 287.797 357.867C263.872 376.445 223.012 357.442 194.037 331.975C165.062 306.509 147.981 274.502 119.063 255.739Z" fill="#E1A771" fill-opacity="0.4"/>
</svg>
